<?xml version="1.0" encoding="UTF-8" standalone="no"?>
<!-- Created with Inkscape (http://www.inkscape.org/) -->

<svg
   xmlns:dc="http://purl.org/dc/elements/1.1/"
   xmlns:cc="http://creativecommons.org/ns#"
   xmlns:rdf="http://www.w3.org/1999/02/22-rdf-syntax-ns#"
   xmlns:svg="http://www.w3.org/2000/svg"
   xmlns="http://www.w3.org/2000/svg"
   xmlns:sodipodi="http://sodipodi.sourceforge.net/DTD/sodipodi-0.dtd"
   xmlns:inkscape="http://www.inkscape.org/namespaces/inkscape"
   width="470"
   height="470"
   id="svg3372"
   sodipodi:version="0.32"
   inkscape:version="0.48.4 r9943 custom"
   version="1.0"
   sodipodi:docname="Bloc_Quebecois_B_logo_1990s.svg"
   inkscape:output_extension="org.inkscape.output.svg.inkscape">
  <defs
     id="defs3374">
    <inkscape:perspective
       sodipodi:type="inkscape:persp3d"
       inkscape:vp_x="0 : 526.18109 : 1"
       inkscape:vp_y="0 : 1000 : 0"
       inkscape:vp_z="744.09448 : 526.18109 : 1"
       inkscape:persp3d-origin="372.04724 : 350.78739 : 1"
       id="perspective3380" />
  </defs>
  <sodipodi:namedview
     id="base"
     pagecolor="#ffffff"
     bordercolor="#666666"
     borderopacity="1.0"
     gridtolerance="10000"
     guidetolerance="10"
     objecttolerance="10"
     inkscape:pageopacity="0.0"
     inkscape:pageshadow="2"
     inkscape:zoom="0.42773438"
     inkscape:cx="114.46576"
     inkscape:cy="116"
     inkscape:document-units="px"
     inkscape:current-layer="layer1"
     showgrid="false"
     inkscape:window-width="1280"
     inkscape:window-height="855"
     inkscape:window-x="-4"
     inkscape:window-y="23"
     inkscape:window-maximized="0" />
  <metadata
     id="metadata3377">
    <rdf:RDF>
      <cc:Work
         rdf:about="">
        <dc:format>image/svg+xml</dc:format>
        <dc:type
           rdf:resource="http://purl.org/dc/dcmitype/StillImage" />
      </cc:Work>
    </rdf:RDF>
  </metadata>
  <g
     inkscape:label="Layer 1"
     inkscape:groupmode="layer"
     id="layer1"
     transform="translate(0.20256,2.0463837)">
    <g
       id="g2995"
       transform="translate(20.51172,-2.2657134)">
      <path
         inkscape:connector-curvature="0"
         sodipodi:nodetypes="ccccc"
         id="path3275"
         d="m -0.20256,157.79761 188.55372,310.156 63.001,-83.67772 L 61.68276,77.46705 -0.20256,157.79761 z"
         style="fill:#00a7ec;fill-opacity:1;fill-rule:evenodd;stroke:none" />
      <path
         inkscape:connector-curvature="0"
         sodipodi:nodetypes="cccccccc"
         id="path3277"
         d="M 221.66708,53.69409 C 202.31936,26.74973 165.80624,13.68689 133.15356,22.59637 113.27908,27.75001 95.47972,40.73669 84.1092,57.82461 c 29.61184,-10.45432 60.86284,0.30944 81.76196,22.70252 22.54672,23.03628 32.08792,57.8144 17.87144,87.3786 -2.7566,6.13332 -6.58868,11.69044 -10.581,17.09888 25.51308,-6.06612 48.0504,-24.5944 58.04052,-48.69596 11.79388,-27.05996 7.9558,-59.35548 -9.53504,-82.61456 z"
         style="fill:#00a7ec;fill-opacity:1;fill-rule:nonzero;stroke:none;stroke-width:10;marker:none;visibility:visible;display:inline;overflow:visible;enable-background:accumulate" />
      <path
         inkscape:connector-curvature="0"
         sodipodi:nodetypes="cccccccc"
         id="path3279"
         d="m 334.79992,206.01897 c -19.34772,-26.94436 -55.86088,-40.0072 -88.51352,-31.09772 -19.87448,5.15364 -37.67384,18.14032 -49.04436,35.22824 29.61184,-10.45432 60.8628,0.30944 81.76196,22.70252 22.54668,23.03632 32.08792,57.8144 17.8714,87.3786 -2.7566,6.13332 -6.58864,11.69048 -10.581,17.09888 25.51308,-6.06612 48.0504,-24.5944 58.04056,-48.69596 11.79388,-27.05992 7.9558,-59.35548 -9.53504,-82.61456 z"
         style="fill:#00a7ec;fill-opacity:1;fill-rule:nonzero;stroke:none;stroke-width:10;marker:none;visibility:visible;display:inline;overflow:visible;enable-background:accumulate" />
      <path
         inkscape:connector-curvature="0"
         sodipodi:nodetypes="cssssssscsssssssc"
         id="path3281"
         d="m 428.774,2.4949702 c -3.63396,-0.33908 -19.5628,8.1091598 -30.00036,10.7242798 -12.17716,3.051 -31.20964,10.31528 -35.03464,11.3364 -15.3002,4.08436 -33.17472,13.58856 -49.91444,27.63484 -0.22528,0.18904 -0.44656,0.37272 -0.67028,0.56244 -0.22568,0.1874 -0.445,0.3734 -0.67032,0.56244 -16.73968,14.04628 -29.20336,29.99884 -35.88252,44.35736 -1.6698,3.5896 -12.12868,21.07152 -17.24784,32.53388 -4.38788,9.82488 -15.4738,24.04468 -15.77088,27.68228 3.63392,0.33908 19.56276,-8.10912 30.00032,-10.72428 12.17716,-3.05096 31.20964,-10.31524 35.03472,-11.33636 15.30016,-4.0844 33.17464,-13.58856 49.91436,-27.63484 0.22528,-0.18908 0.44656,-0.37276 0.67028,-0.56244 0.22568,-0.1874 0.445,-0.3734 0.67028,-0.56244 16.73968,-14.04632 29.20336,-29.99888 35.8826,-44.35736 1.6698,-3.58964 12.12864,-21.07152 17.2478,-32.53392 4.38788,-9.82484 15.4738,-24.0446798 15.77092,-27.6822798 z"
         style="fill:#00a7ec;fill-opacity:1;fill-rule:nonzero;stroke:none;stroke-width:10;marker:none;visibility:visible;display:inline;overflow:visible;enable-background:accumulate" />
    </g>
  </g>
</svg>
