<?xml version="1.0" encoding="UTF-8" standalone="no"?>
<!-- Created with Inkscape (http://www.inkscape.org/) -->

<svg
   xmlns:dc="http://purl.org/dc/elements/1.1/"
   xmlns:cc="http://creativecommons.org/ns#"
   xmlns:rdf="http://www.w3.org/1999/02/22-rdf-syntax-ns#"
   xmlns:svg="http://www.w3.org/2000/svg"
   xmlns="http://www.w3.org/2000/svg"
   xmlns:sodipodi="http://sodipodi.sourceforge.net/DTD/sodipodi-0.dtd"
   xmlns:inkscape="http://www.inkscape.org/namespaces/inkscape"
   width="350"
   height="350"
   id="svg5511"
   sodipodi:version="0.32"
   inkscape:version="0.48.4 r9943 custom"
   version="1.0"
   sodipodi:docname="Conservative_Party_of_Canada.svg"
   inkscape:output_extension="org.inkscape.output.svg.inkscape">
  <defs
     id="defs5513">
    <inkscape:perspective
       sodipodi:type="inkscape:persp3d"
       inkscape:vp_x="0 : 526.18109 : 1"
       inkscape:vp_y="0 : 1000 : 0"
       inkscape:vp_z="744.09448 : 526.18109 : 1"
       inkscape:persp3d-origin="372.04724 : 350.78739 : 1"
       id="perspective5519" />
  </defs>
  <sodipodi:namedview
     id="base"
     pagecolor="#ffffff"
     bordercolor="#666666"
     borderopacity="1.0"
     gridtolerance="10000"
     guidetolerance="10"
     objecttolerance="10"
     inkscape:pageopacity="0.0"
     inkscape:pageshadow="2"
     inkscape:zoom="1"
     inkscape:cx="94.02587"
     inkscape:cy="108.72365"
     inkscape:document-units="px"
     inkscape:current-layer="layer1"
     showgrid="false"
     inkscape:window-width="1280"
     inkscape:window-height="744"
     inkscape:window-x="0"
     inkscape:window-y="23"
     inkscape:window-maximized="0" />
  <metadata
     id="metadata5516">
    <rdf:RDF>
      <cc:Work
         rdf:about="">
        <dc:format>image/svg+xml</dc:format>
        <dc:type
           rdf:resource="http://purl.org/dc/dcmitype/StillImage" />
      </cc:Work>
    </rdf:RDF>
  </metadata>
  <g
     inkscape:label="Layer 1"
     inkscape:groupmode="layer"
     id="layer1"
     transform="translate(25.007682,20.221901)">
    <g
       id="g2995"
       transform="translate(1.4208881,-14.726924)">
      <path
         inkscape:connector-curvature="0"
         id="path3496"
         style="fill:#0c499c;fill-opacity:1;fill-rule:nonzero;stroke:none"
         d="m 127.93607,287.2434 c -12.88872,7.56215 -17.5932,7.75656 -25.33032,7.11503 -10.672556,-0.91367 -25.796881,-12.90815 -31.123441,-36.89711 -8.90353,-39.96865 2.74104,-92.51497 29.548801,-141.19272 35.82792,-65.026803 92.6316,-106.006325 141.25104,-106.9977634 -0.25272,-0.019441 -0.54432,-0.019441 -0.7776,-0.03888 l -87.13008,0.05832 C 104.99687,8.3182766 42.575019,49.725477 5.8917393,116.32691 -20.97434,165.12132 -30.0917,216.65675 -22.35458,256.93643 c 2.06064,10.63368 7.115039,21.17017 12.9859193,28.9656 5.32656,7.09561 16.7184,19.94545 30.6374397,25.77744 10.73088,4.47121 28.01304,7.56217 44.88697,5.32656 24.902645,-3.75192 61.780321,-29.76263 61.780321,-29.76263" />
      <path
         inkscape:connector-curvature="0"
         id="path3498"
         style="fill:#0c499c;fill-opacity:1;fill-rule:nonzero;stroke:none"
         d="m 322.10279,114.519 c 0.27216,-11.39184 -0.62208,-22.219919 -2.60496,-32.445371 -2.0412,-10.633665 -7.11504,-21.170154 -12.96648,-28.946152 -5.346,-7.11504 -18.25416,-20.35368 -30.65688,-25.79688 -14.05512,-6.1236 -30.5208,-7.46496 -44.9064,-5.32656 -22.18104,1.78848 -61.74144,29.78208 -61.74144,29.78208 12.86928,-7.562162 17.57376,-7.776002 25.33032,-7.11504 10.67256,0.8748 25.77744,12.88872 31.104,36.877671 3.32424,15.007693 3.77136,32.037122 1.61352,49.708082 L 322.10279,114.519 z" />
      <path
         inkscape:connector-curvature="0"
         id="path3500"
         style="fill:#ee3224;fill-opacity:1;fill-rule:nonzero;stroke:none"
         d="m 165.80519,200.19108 42.26256,-20.04264 -8.67024,-4.2768 17.1072,-20.45088 -24.16392,5.15159 1.7496,-10.73087 -24.22224,19.10952 c -0.15552,0.15551 -0.40824,0.2916 -0.66096,0.2916 -0.44712,0 -0.73872,-0.34993 -0.6804,-0.79705 0.0194,-0.17496 0.13608,-0.33048 0.23328,-0.44711 l 18.00144,-31.70664 -12.0528,5.03496 -2.3328,-19.80937 -18.11808,19.88712 -8.0676,-4.99607 -7.44552,31.86215 0,0.11664 c -0.0972,0.50544 -0.60264,0.972 -1.14696,0.972 -0.40824,0 -0.71928,-0.27215 -0.79704,-0.64152 l -9.15624,-18.70128 -6.82344,10.73089 -20.06208,-4.99608 0.81648,20.39256 -12.091679,4.33512 25.874639,19.47888 c 0.44712,0.31103 0.66096,0.77759 0.52488,1.3608 -0.0583,0.56375 -0.44712,1.04976 -0.93312,1.34136 l -10.75032,9.66168 31.31784,-3.69361 -10.47816,24.6888 5.50152,-0.0194 9.21456,-24.45552 28.24632,3.24648 -3.14928,-9.79776 c -0.1944,-0.23327 -0.27216,-0.52487 -0.21384,-0.83592 0.0778,-0.62207 0.60264,-1.10807 1.1664,-1.26359" />
      <path
         inkscape:connector-curvature="0"
         id="path3502"
         style="fill:#0c499c;fill-opacity:1;fill-rule:nonzero;stroke:none"
         d="m 303.63479,197.70275 c -3.6936,9.19512 -6.49296,14.26896 -12.38328,24.99985 -3.51864,6.39575 -7.29,12.51935 -11.2752,18.39023 -37.69416,55.5012 -94.84776,88.23817 -138.54888,88.62696 l -85.769291,0.0583 c -0.23328,0 -0.50544,-0.0389 -0.79704,-0.0389 48.638891,-0.99144 105.442571,-41.97096 141.251051,-106.99776 1.1664,-2.09952 2.27448,-4.00464 3.36312,-6.1236 l 0.44712,-0.0583 103.7124,-18.8568 z" />
    </g>
  </g>
</svg>
