<?xml version="1.0" encoding="UTF-8" standalone="no"?>
<!-- Generator: Adobe Illustrator 13.0.0, SVG Export Plug-In . SVG Version: 6.00 Build 14948)  -->

<svg
   xmlns:dc="http://purl.org/dc/elements/1.1/"
   xmlns:cc="http://creativecommons.org/ns#"
   xmlns:rdf="http://www.w3.org/1999/02/22-rdf-syntax-ns#"
   xmlns:svg="http://www.w3.org/2000/svg"
   xmlns="http://www.w3.org/2000/svg"
   xmlns:sodipodi="http://sodipodi.sourceforge.net/DTD/sodipodi-0.dtd"
   xmlns:inkscape="http://www.inkscape.org/namespaces/inkscape"
   version="1.1"
   id="Layer_1"
   x="0px"
   y="0px"
   width="60"
   height="60"
   viewBox="0 0 60 60"
   xml:space="preserve"
   inkscape:version="0.48.4 r9943 custom"
   sodipodi:docname="Green_Party_logo.svg"><metadata
   id="metadata3171"><rdf:RDF><cc:Work
       rdf:about=""><dc:format>image/svg+xml</dc:format><dc:type
         rdf:resource="http://purl.org/dc/dcmitype/StillImage" /></cc:Work></rdf:RDF></metadata><defs
   id="defs3169" /><sodipodi:namedview
   pagecolor="#ffffff"
   bordercolor="#666666"
   borderopacity="1"
   objecttolerance="10"
   gridtolerance="10"
   guidetolerance="10"
   inkscape:pageopacity="0"
   inkscape:pageshadow="2"
   inkscape:window-width="640"
   inkscape:window-height="480"
   id="namedview3167"
   showgrid="false"
   inkscape:zoom="1.1033333"
   inkscape:cx="43.957704"
   inkscape:cy="35"
   inkscape:window-x="0"
   inkscape:window-y="23"
   inkscape:window-maximized="0"
   inkscape:current-layer="Layer_1" />





































<g
   id="g3173"
   transform="translate(-143.611,-4.704)"><path
     id="path3021"
     d="m 178.834,33.158 c -0.06,0.028 -0.09,0.049 -0.09,0.053 h 0.002 c 0,0 0.001,0 0.003,-10e-4 0.005,-0.004 0.028,-0.015 0.064,-0.039 0.007,-0.004 0.012,-0.008 0.021,-0.013"
     style="fill:#8abf88"
     inkscape:connector-curvature="0" /><path
     id="path3023"
     d="m 176.373,31.777 c -0.034,0.01 -0.069,0.018 -0.092,0.024 v 0.002 c 0.031,-0.008 0.062,-0.017 0.092,-0.026"
     style="fill:#8abf88"
     inkscape:connector-curvature="0" /><path
     id="path3025"
     d="m 175.505,32.03 c -0.067,0.023 -0.13,0.044 -0.174,0.063 0.055,-0.021 0.118,-0.041 0.174,-0.063"
     style="fill:#8abf88"
     inkscape:connector-curvature="0" /><polygon
     id="polygon3027"
     points="174.239,39.52 174.237,39.521 174.242,39.53 "
     style="fill:#8abf88" /><path
     id="path3029"
     d="m 168.653,36.926 c -0.002,0 -0.008,0.003 -0.018,0.011 -0.013,0.007 -0.032,0.022 -0.057,0.041 -0.003,0.002 -0.007,0.006 -0.011,0.008 0.013,-0.006 0.023,-0.014 0.031,-0.02 0.012,-0.007 0.023,-0.014 0.032,-0.021 0.016,-0.01 0.023,-0.017 0.023,-0.019"
     style="fill:#8abf88"
     inkscape:connector-curvature="0" /><path
     id="path3031"
     d="m 152.96,22.515 c -0.288,0.08 -0.581,0.168 -0.877,0.257 0.007,0.032 0.016,0.063 0.021,0.095 0.281,-0.12 0.568,-0.239 0.856,-0.352"
     style="fill:#8abf88"
     inkscape:connector-curvature="0" /><path
     id="path3033"
     d="m 154.44,15.21 c -0.497,0 -1.002,0.008 -1.517,0.022 -0.796,0.102 -1.423,0.208 -1.825,0.282 0.027,0.875 0.155,3.32 0.756,6.229 2.478,-0.761 4.758,-1.142 6.832,-1.142 0.064,0 0.131,0 0.194,0.001 0.134,-1.751 0.491,-3.468 0.957,-5.065 -1.651,-0.216 -3.45,-0.327 -5.397,-0.327"
     style="fill:#8abf88"
     inkscape:connector-curvature="0" /><path
     id="path3035"
     d="m 149.97,31.973 c -0.226,0.21 -0.451,0.429 -0.673,0.654 l 0.031,0.038 c 0.208,-0.228 0.421,-0.461 0.642,-0.692"
     style="fill:#8abf88"
     inkscape:connector-curvature="0" /><path
     id="path3037"
     d="m 151.158,23.291 c -2.66,1.237 -4.765,2.623 -5.741,3.303 0.479,0.923 1.6,2.958 3.242,5.19 1.403,-1.423 2.829,-2.558 4.268,-3.402 -0.791,-1.679 -1.358,-3.431 -1.769,-5.091"
     style="fill:#8abf88"
     inkscape:connector-curvature="0" /><path
     id="path3039"
     d="m 148.606,33.498 c -1.886,2.245 -3.21,4.389 -3.804,5.418 0.813,0.642 2.863,2.165 5.541,3.598 0.614,-1.886 1.358,-3.537 2.231,-4.951 -1.5,-1.245 -2.83,-2.667 -3.968,-4.065"
     style="fill:#8abf88"
     inkscape:connector-curvature="0" /><path
     id="path3041"
     d="m 153.409,29.337 c -1.155,0.679 -2.301,1.562 -3.44,2.636 -0.22,0.231 -0.432,0.463 -0.642,0.694 1.091,1.387 2.37,2.803 3.813,4.037 0.829,-1.173 1.766,-2.146 2.798,-2.932 0.146,-0.13 0.293,-0.254 0.443,-0.375 -1.208,-1.19 -2.185,-2.581 -2.972,-4.06"
     style="fill:#8abf88"
     inkscape:connector-curvature="0" /><path
     id="path3043"
     d="m 158.623,21.673 c -1.73,0 -3.619,0.282 -5.663,0.842 -0.288,0.113 -0.575,0.231 -0.855,0.353 0.396,1.641 0.949,3.378 1.716,5.035 1.396,-0.701 2.806,-1.129 4.229,-1.287 0.152,-0.017 0.303,-0.044 0.455,-0.055 0.176,-0.011 0.352,-0.016 0.524,-0.016 0.148,0 0.299,0.004 0.447,0.008 -0.025,-0.081 -0.056,-0.157 -0.079,-0.24 -0.028,-0.089 -0.063,-0.172 -0.087,-0.263 -0.384,-1.433 -0.517,-2.908 -0.484,-4.375 -0.067,-0.001 -0.134,-0.002 -0.203,-0.002"
     style="fill:#8abf88"
     inkscape:connector-curvature="0" /><path
     id="path3045"
     d="m 150.984,44.003 c -0.568,1.991 -1.005,4.235 -1.306,6.729 1.065,0.237 3.373,0.688 6.157,0.831 -0.331,-2.096 -0.393,-4.028 -0.187,-5.771 -1.641,-0.462 -3.22,-1.098 -4.664,-1.789"
     style="fill:#8abf88"
     inkscape:connector-curvature="0" /><path
     id="path3047"
     d="m 153.421,38.231 c -0.833,1.353 -1.544,2.946 -2.135,4.767 1.398,0.691 2.929,1.331 4.522,1.798 0.299,-1.604 0.838,-3.038 1.611,-4.282 -1.427,-0.558 -2.763,-1.354 -3.998,-2.283"
     style="fill:#8abf88"
     inkscape:connector-curvature="0" /><path
     id="path3049"
     d="m 156.382,33.397 0,0 c -0.15,0.12 -0.298,0.245 -0.443,0.375 0.155,-0.118 0.307,-0.245 0.466,-0.352 l -0.023,-0.023 z"
     style="fill:#8abf88"
     inkscape:connector-curvature="0" /><path
     id="path3051"
     d="m 159.176,27.62 c -0.194,0 -0.39,0.006 -0.586,0.019 -1.44,0.104 -2.871,0.518 -4.293,1.224 0.768,1.449 1.718,2.802 2.897,3.935 0.028,0.027 0.054,0.055 0.082,0.081 0.017,-0.008 0.033,-0.021 0.05,-0.029 1.626,-0.902 3.357,-1.211 4.987,-1.211 0.184,0 0.367,0.005 0.551,0.013 -0.226,-0.197 -0.428,-0.409 -0.634,-0.613 -0.995,-0.999 -1.787,-2.121 -2.349,-3.395 -0.233,-0.015 -0.469,-0.024 -0.705,-0.024"
     style="fill:#8abf88"
     inkscape:connector-curvature="0" /><path
     id="path3053"
     d="m 162.585,52.168 c -1.705,0.332 -3.429,0.459 -5.054,0.459 -0.052,0 -0.104,0 -0.154,-0.001 0.482,2.112 1.254,4.411 2.295,6.885 1.37,-0.354 3.386,-0.958 5.545,-1.896 -1.199,-1.865 -2.077,-3.682 -2.632,-5.447"
     style="fill:#8abf88"
     inkscape:connector-curvature="0" /><path
     id="path3055"
     d="m 156.814,46.09 c -0.151,1.658 -0.028,3.5 0.355,5.515 0.123,0.001 0.247,0.003 0.373,0.003 1.54,0 3.169,-0.116 4.771,-0.416 -0.399,-1.61 -0.528,-3.178 -0.376,-4.7 -0.417,0.037 -0.835,0.056 -1.255,0.056 -1.29,-0.001 -2.593,-0.171 -3.868,-0.458"
     style="fill:#8abf88"
     inkscape:connector-curvature="0" /><path
     id="path3057"
     d="m 158.532,40.889 c -0.012,0.02 -0.025,0.037 -0.039,0.057 -0.776,1.206 -1.288,2.594 -1.546,4.15 1.231,0.288 2.491,0.458 3.741,0.458 0.472,0 0.941,-0.024 1.407,-0.076 0.262,-1.295 0.75,-2.452 1.36,-3.464 0.186,-0.335 0.393,-0.666 0.622,-0.996 -0.854,0.193 -1.71,0.297 -2.563,0.297 -0.992,-10e-4 -1.986,-0.137 -2.982,-0.426"
     style="fill:#8abf88"
     inkscape:connector-curvature="0" /><path
     id="path3059"
     d="m 157.239,34.174 c -1.226,0.8 -2.315,1.864 -3.263,3.205 1.241,0.954 2.589,1.757 4.032,2.288 0.668,-0.841 1.458,-1.523 2.305,-2.08 0.683,-0.446 1.404,-0.813 2.122,-1.106 -0.163,-0.03 -0.325,-0.059 -0.484,-0.094 -1.741,-0.373 -3.317,-1.082 -4.712,-2.213"
     style="fill:#8abf88"
     inkscape:connector-curvature="0" /><path
     id="path3061"
     d="m 171.428,55.18 c -1.485,1.164 -3.118,2.11 -4.719,2.876 1.175,1.678 2.611,3.399 4.317,5.163 1.03,-0.808 2.879,-2.362 4.73,-4.428 -1.716,-1.125 -3.163,-2.327 -4.328,-3.611"
     style="fill:#8abf88"
     inkscape:connector-curvature="0" /><path
     id="path3063"
     d="m 168.322,50.008 c -1.472,0.919 -3.098,1.54 -4.763,1.946 0.539,1.695 1.399,3.444 2.57,5.249 1.577,-0.742 3.188,-1.664 4.645,-2.792 -0.916,-1.143 -1.624,-2.346 -2.122,-3.607 -0.118,-0.259 -0.228,-0.526 -0.33,-0.796"
     style="fill:#8abf88"
     inkscape:connector-curvature="0" /><path
     id="path3065"
     d="m 180.223,54.302 c -0.845,1.562 -1.873,3.002 -2.939,4.278 1.934,1.156 4.192,2.224 6.771,3.194 0.911,-2.194 1.607,-4.21 2.114,-6.066 -2.227,-0.253 -4.208,-0.724 -5.946,-1.406"
     style="fill:#8abf88"
     inkscape:connector-curvature="0" /><path
     id="path3067"
     d="m 175.207,51.107 -0.026,0.047 c -0.822,1.284 -1.849,2.405 -2.988,3.395 1.128,1.236 2.541,2.398 4.22,3.486 1.044,-1.236 2.051,-2.627 2.879,-4.127 -1.596,-0.733 -2.956,-1.667 -4.085,-2.801"
     style="fill:#8abf88"
     inkscape:connector-curvature="0" /><path
     id="path3069"
     d="m 172.282,45.686 c -0.759,1.448 -1.759,2.685 -3.062,3.684 0.045,0.157 0.08,0.315 0.131,0.473 0.459,1.382 1.193,2.697 2.192,3.942 1.072,-0.926 2.035,-1.976 2.798,-3.167 0.057,-0.088 0.108,-0.18 0.163,-0.267 -1.195,-1.458 -1.864,-3.105 -2.222,-4.665"
     style="fill:#8abf88"
     inkscape:connector-curvature="0" /><path
     id="path3071"
     d="m 168.361,49.984 -0.037,0.024 c 0.1,0.271 0.21,0.535 0.327,0.796 -0.086,-0.222 -0.175,-0.442 -0.249,-0.666 -0.016,-0.051 -0.023,-0.1 -0.041,-0.154"
     style="fill:#8abf88"
     inkscape:connector-curvature="0" /><path
     id="path3073"
     d="m 168.299,43.804 c -0.144,0.122 -0.289,0.24 -0.437,0.354 -1.453,1.131 -3.075,1.887 -4.914,2.206 l -0.003,0.031 c -0.176,1.476 -0.055,3.008 0.341,4.59 1.626,-0.388 3.201,-0.985 4.607,-1.877 0.039,-0.026 0.078,-0.054 0.118,-0.079 0.028,-0.018 0.059,-0.037 0.088,-0.058 -0.371,-1.848 -0.195,-3.625 0.2,-5.167"
     style="fill:#8abf88"
     inkscape:connector-curvature="0" /><path
     id="path3075"
     d="m 193.731,48.214 c -2.511,0.835 -4.84,1.251 -6.979,1.251 -1.645,0 -3.181,-0.246 -4.601,-0.736 -0.233,1.638 -0.764,3.212 -1.473,4.687 2.618,1.01 5.833,1.52 9.634,1.52 1.296,0 2.66,-0.059 4.093,-0.177 -0.103,-2.439 -0.336,-4.613 -0.674,-6.545"
     style="fill:#8abf88"
     inkscape:connector-curvature="0" /><path
     id="path3077"
     d="m 176.901,44.854 c 0.025,1.903 -0.341,3.69 -1.188,5.359 1.091,1.149 2.439,2.083 4.037,2.813 0.709,-1.445 1.226,-2.98 1.438,-4.568 0.005,-0.037 0.01,-0.073 0.013,-0.108 -1.864,-0.839 -3.266,-2.14 -4.3,-3.496"
     style="fill:#8abf88"
     inkscape:connector-curvature="0" /><path
     id="path3079"
     d="m 197.685,38.168 c -3.595,3.394 -7.23,5.209 -10.871,5.411 -0.186,0.012 -0.37,0.017 -0.553,0.017 -1.938,0 -3.672,-0.563 -5.13,-1.312 0.818,1.733 1.221,3.529 1.121,5.428 1.378,0.506 2.877,0.759 4.495,0.759 4.039,0 8.817,-1.576 14.283,-4.719 -1.114,-2.141 -2.233,-3.992 -3.345,-5.584"
     style="fill:#8abf88"
     inkscape:connector-curvature="0" /><path
     id="path3081"
     d="m 164.444,7.57 c -0.438,0.719 -2.063,3.515 -3.264,7.1 2.374,0.4 4.439,1.038 6.187,1.911 0.933,-1.963 2.214,-3.749 3.566,-5.302 -1.842,-1.297 -4.001,-2.536 -6.489,-3.709"
     style="fill:#8abf88"
     inkscape:connector-curvature="0" /><path
     id="path3083"
     d="m 160.858,15.686 c -0.468,1.568 -0.832,3.255 -0.97,4.961 1.793,0.137 3.428,0.572 4.883,1.328 0.405,0.208 0.784,0.448 1.14,0.703 -0.018,-0.711 0.032,-1.433 0.164,-2.169 0.182,-1.013 0.479,-1.994 0.861,-2.939 -1.698,-0.867 -3.728,-1.494 -6.078,-1.884"
     style="fill:#8abf88"
     inkscape:connector-curvature="0" /><path
     id="path3085"
     d="m 168.636,36.937 c 0.009,-0.008 0.016,-0.012 0.018,-0.012 0,0.002 -0.008,0.01 -0.021,0.021 -0.009,0.006 -0.021,0.013 -0.031,0.02 -0.009,0.006 -0.02,0.014 -0.031,0.02 0.003,-0.002 0.007,-0.006 0.01,-0.008 0.023,-0.02 0.042,-0.035 0.055,-0.041 m 0.394,-5.076 c -0.005,0 -0.034,-0.027 -0.079,-0.083 0.059,0.055 0.083,0.083 0.079,0.083 m -1.211,-13.806 c -0.337,0.853 -0.604,1.733 -0.764,2.632 -0.159,0.891 -0.248,1.801 -0.249,2.718 3.098,2.834 4.162,8.312 4.21,8.539 -0.284,-0.937 -1.495,-4.461 -4.138,-7.078 0.214,2.075 0.915,4.129 2.315,5.958 -1.675,-2.188 -2.784,-4.403 -3.151,-6.716 -0.539,-0.438 -1.125,-0.833 -1.761,-1.166 -1.325,-0.687 -2.816,-1.085 -4.453,-1.217 -0.033,1.375 0.093,2.749 0.444,4.073 0.077,0.288 0.17,0.571 0.262,0.854 4.313,0.645 8.261,4.965 8.413,5.125 -0.801,-0.712 -4.042,-3.377 -8.008,-4.016 0.303,0.733 0.664,1.444 1.089,2.122 0.238,0.383 0.502,0.754 0.786,1.115 0.183,0.23 0.363,0.461 0.563,0.679 0.139,0.009 0.271,0.026 0.406,0.041 2.38,0.257 5.011,1.364 5.21,1.444 -0.6,-0.178 -2.24,-0.61 -4.28,-0.723 -0.194,-0.01 -0.392,-0.014 -0.595,-0.02 l 2.372,1.664 c -0.976,-0.511 -1.864,-1.068 -2.675,-1.669 h -0.044 c -1.798,0 -3.798,0.302 -5.619,1.233 1.28,1.042 2.738,1.897 4.341,2.431 0.182,0.062 0.363,0.118 0.548,0.17 2.213,-0.797 5.075,-1.008 5.277,-1.025 -0.632,0.116 -2.297,0.473 -4.156,1.276 0.632,0.11 1.28,0.169 1.948,0.169 0.059,0 0.119,0 0.18,-0.002 -0.421,0.022 -0.835,0.036 -1.243,0.036 -0.419,0 -0.836,-0.016 -1.237,-0.047 -1.625,0.741 -3.353,1.827 -4.648,3.386 1.248,0.344 2.551,0.544 3.865,0.544 0.477,0 0.953,-0.026 1.431,-0.081 0.022,-0.003 0.046,-0.007 0.069,-0.011 1.62,-1.981 3.472,-3.169 4.042,-3.506 -0.48,0.394 -1.835,1.584 -3.111,3.355 1.161,-0.236 2.313,-0.648 3.424,-1.29 -1.239,0.715 -2.463,1.273 -3.681,1.661 -0.878,1.289 -1.68,2.85 -2.071,4.61 1.701,-0.305 3.374,-0.889 4.881,-1.822 0.149,-0.09 0.302,-0.17 0.445,-0.27 0.613,-2.042 1.916,-4.124 2.013,-4.286 -0.243,0.51 -0.848,1.891 -1.261,3.71 0.799,-0.646 1.533,-1.396 2.166,-2.298 -0.71,1.011 -1.46,1.914 -2.257,2.699 -0.318,1.567 -0.464,3.416 -0.128,5.292 1.209,-0.916 2.301,-2.017 3.16,-3.306 -0.015,-0.068 -0.025,-0.138 -0.036,-0.206 -0.054,-0.282 -0.084,-0.578 -0.119,-0.877 -0.192,-1.82 0.076,-3.954 0.09,-4.117 -0.003,0.625 0.04,2.362 0.546,4.41 0.489,-0.873 0.878,-1.822 1.129,-2.854 -0.248,1.186 -0.575,2.295 -1.006,3.31 0.429,1.554 1.129,3.234 2.281,4.715 0.813,-1.543 1.376,-3.236 1.537,-5.021 -1.412,-2.015 -2.055,-4.008 -2.232,-4.646 h 0.001 c 0.101,0.216 0.271,0.576 0.524,1.031 0.393,0.719 0.972,1.658 1.751,2.643 0.006,-0.722 -0.058,-1.455 -0.2,-2.196 0.194,0.836 0.346,1.659 0.421,2.458 1.112,1.348 2.595,2.712 4.463,3.613 0.108,-1.765 -0.075,-3.57 -0.668,-5.287 -1.857,-1.051 -3.198,-2.354 -3.829,-3.036 -0.078,0.002 -0.166,0.006 -0.266,0.006 -0.198,0 -0.435,-0.01 -0.684,-0.038 -0.086,0.344 -0.2,0.707 -0.378,1.124 0,0 -0.477,-0.154 -1.021,-0.46 -0.062,-0.037 -0.128,-0.076 -0.193,-0.116 l -0.02,0.021 0.003,0.013 -0.005,-0.011 c -0.218,0.262 -0.482,0.537 -0.803,0.827 0,0 -0.466,-0.429 -0.866,-1.045 -0.147,0.071 -0.311,0.141 -0.482,0.206 -0.195,0.075 -0.396,0.147 -0.622,0.216 0,0 -0.249,-0.602 -0.348,-1.345 -0.024,0 -0.049,0 -0.075,0 -0.202,0 -0.419,-0.01 -0.65,-0.031 -0.154,-0.012 -0.299,-0.021 -0.465,-0.044 0,0 0.032,-0.615 0.24,-1.307 -0.302,-0.139 -0.615,-0.306 -0.965,-0.528 l -0.029,-0.02 c 0,0 0.276,-0.527 0.743,-1.058 -0.175,-0.207 -0.349,-0.442 -0.531,-0.713 -0.048,-0.076 -0.099,-0.152 -0.15,-0.233 0,0 0.489,-0.372 1.156,-0.661 -0.096,-0.339 -0.18,-0.713 -0.233,-1.163 0,0 0.509,-0.108 1.153,-0.108 0.148,0 0.307,0.005 0.465,0.02 0.122,-0.39 0.298,-0.825 0.559,-1.316 0,0 0.487,0.204 1.021,0.577 0.191,-1.416 0.697,-7.013 -2.314,-10.919 -0.85,-1.098 -1.925,-2.038 -3.223,-2.821"
     style="fill:#8abf88"
     inkscape:connector-curvature="0" /><path
     id="path3087"
     d="m 168.951,31.779 c 0.045,0.054 0.074,0.082 0.079,0.082 0.004,0 -0.02,-0.028 -0.079,-0.082"
     style="fill:#5caf56"
     inkscape:connector-curvature="0" /><path
     id="path3089"
     d="m 178.16,6.189 c -1.054,0.735 -3.427,2.495 -5.73,4.955 3.8,2.891 6.129,6.084 6.942,9.547 1.124,4.798 -1.579,9.04 -2.704,10.544 l 0.006,-0.008 c 0,0 -0.126,0.169 -0.281,0.337 0.321,-0.555 1.009,-1.855 1.554,-3.579 0.63,-1.992 1.055,-4.524 0.453,-7.079 -0.766,-3.252 -2.997,-6.271 -6.637,-9.025 -1.339,1.524 -2.603,3.273 -3.512,5.182 1.471,0.859 2.693,1.903 3.643,3.144 3.3,4.288 1.87,10.208 1.472,11.597 0.055,0.038 0.113,0.08 0.17,0.125 0.27,-0.294 0.608,-0.605 1.037,-0.927 0,0 0.414,0.453 0.756,1.09 l 0.002,0.002 c 0.044,-0.019 0.108,-0.04 0.174,-0.063 0.215,-0.074 0.442,-0.143 0.7,-0.209 l 0.01,-0.007 0.037,-0.01 -0.005,0.008 0.035,-0.008 v -0.003 c 0.022,-0.006 0.057,-0.013 0.092,-0.024 0.04,-0.009 0.079,-0.021 0.125,-0.03 0,0 0.189,0.607 0.226,1.346 0.201,0.013 0.412,0.037 0.643,0.075 0.188,0.029 0.371,0.057 0.58,0.106 0,0 -0.079,0.596 -0.341,1.257 0.167,0.098 0.343,0.213 0.521,0.339 0.124,0.087 0.245,0.164 0.376,0.266 0,0 -0.338,0.526 -0.869,1.024 0.195,0.271 0.388,0.591 0.583,0.966 0.018,0.025 0.028,0.049 0.043,0.073 0,0 -0.535,0.337 -1.23,0.564 0.063,0.349 0.117,0.732 0.13,1.19 0,0 -0.061,0.008 -0.156,0.017 -0.033,0.004 -0.069,0.004 -0.113,0.006 0.143,0.114 0.314,0.243 0.506,0.384 0.683,0.506 1.666,1.157 2.872,1.748 -0.416,-0.935 -0.963,-1.838 -1.668,-2.683 0.777,0.934 1.449,1.877 1.998,2.837 1.59,0.737 3.512,1.339 5.577,1.339 0.201,0 0.397,-0.006 0.599,-0.017 5.21,-0.296 10.468,-4.186 15.644,-11.553 -1.698,-1.305 -3.307,-2.411 -4.823,-3.324 -1.827,4.646 -4.365,7.859 -7.602,9.596 -1.153,0.618 -2.335,0.952 -3.489,1.115 -0.477,0.067 -0.965,0.099 -1.45,0.099 -1.62,0 -3.231,-0.329 -4.437,-0.655 -1.153,-0.313 -1.937,-0.625 -2.009,-0.652 0.624,0.176 2.476,0.628 4.745,0.628 1.924,0 4.148,-0.325 6.183,-1.419 4.555,-2.449 7.665,-8.114 9.26,-16.855 -2.404,-0.53 -4.581,-0.869 -6.55,-1.035 0.299,4.953 -0.647,8.918 -2.839,11.847 -3.222,4.311 -10.153,4.711 -10.363,4.729 0.35,-0.058 1.061,-0.194 1.982,-0.466 2.176,-0.643 5.475,-2.034 7.595,-4.872 3.134,-4.199 3.523,-10.767 1.175,-19.53 -2.375,0.523 -4.464,1.128 -6.305,1.794 2.591,4.567 3.516,8.739 2.74,12.462 -1.134,5.417 -6.349,8.161 -7.398,8.666 -0.006,0.004 -0.012,0.009 -0.019,0.013 -0.038,0.023 -0.058,0.036 -0.065,0.04 0,0 -0.002,0 -0.004,0 -0.003,-0.004 0.029,-0.023 0.088,-0.053 0.577,-0.392 2.321,-1.675 3.885,-3.666 1.105,-1.412 2.113,-3.169 2.538,-5.215 1.059,-5.105 -1.331,-11.187 -7.098,-18.09"
     style="fill:#8abf88"
     inkscape:connector-curvature="0" /><path
     id="path3091"
     d="m 176.281,31.802 0,0 v 0.002 -0.002 z m 0.217,-0.055 c -0.046,0.009 -0.084,0.02 -0.123,0.03 0.042,-0.011 0.087,-0.023 0.123,-0.03"
     style="fill:#5caf56"
     inkscape:connector-curvature="0" /><polygon
     id="polygon3093"
     points="176.251,31.804 176.214,31.814 176.205,31.821 176.246,31.812 "
     style="fill:#8abf88" /><path
     id="path3095"
     d="m 162.435,36.48 0,0 c -0.718,0.295 -1.439,0.66 -2.122,1.107 -0.847,0.556 -1.637,1.239 -2.304,2.079 0.182,0.068 0.362,0.138 0.545,0.194 0.2,0.063 0.403,0.123 0.609,0.178 1.296,-1.56 3.024,-2.645 4.647,-3.386 -0.466,-0.037 -0.927,-0.094 -1.375,-0.172"
     style="fill:#8abf88"
     inkscape:connector-curvature="0" /></g>



































</svg>