<?xml version="1.0" encoding="UTF-8" standalone="no"?>
<!-- Created with Inkscape (http://www.inkscape.org/) -->

<svg
   xmlns:dc="http://purl.org/dc/elements/1.1/"
   xmlns:cc="http://creativecommons.org/ns#"
   xmlns:rdf="http://www.w3.org/1999/02/22-rdf-syntax-ns#"
   xmlns:svg="http://www.w3.org/2000/svg"
   xmlns="http://www.w3.org/2000/svg"
   xmlns:sodipodi="http://sodipodi.sourceforge.net/DTD/sodipodi-0.dtd"
   xmlns:inkscape="http://www.inkscape.org/namespaces/inkscape"
   width="700"
   height="700"
   id="svg2"
   version="1.1"
   inkscape:version="0.48.4 r9943 custom"
   sodipodi:docname="LPC.svg">
  <defs
     id="defs4" />
  <sodipodi:namedview
     id="base"
     pagecolor="#ffffff"
     bordercolor="#666666"
     borderopacity="1.0"
     inkscape:pageopacity="0.0"
     inkscape:pageshadow="2"
     inkscape:zoom="0.35"
     inkscape:cx="286.42858"
     inkscape:cy="520"
     inkscape:document-units="px"
     inkscape:current-layer="layer1"
     showgrid="false"
     inkscape:window-width="1111"
     inkscape:window-height="791"
     inkscape:window-x="0"
     inkscape:window-y="23"
     inkscape:window-maximized="0" />
  <metadata
     id="metadata7">
    <rdf:RDF>
      <cc:Work
         rdf:about="">
        <dc:format>image/svg+xml</dc:format>
        <dc:type
           rdf:resource="http://purl.org/dc/dcmitype/StillImage" />
        <dc:title />
      </cc:Work>
    </rdf:RDF>
  </metadata>
  <g
     inkscape:label="Layer 1"
     inkscape:groupmode="layer"
     id="layer1"
     transform="translate(0,-352.36218)">
    <path
       style="fill:#ed2f23;fill-opacity:1"
       d="m 56.792596,984.80028 c -4.47132,-2.45857 -4.64001,-5.47692 -0.92294,-16.51451 4.96396,-14.74003 5.98518,-15.81739 18.060026,-19.05197 12.742999,-3.41363 19.693099,-7.06297 26.577658,-13.95537 6.29557,-6.30273 9.2824,-11.65815 11.26155,-20.19206 1.07611,-4.64012 1.19636,-30.40432 1.01039,-216.48351 l -0.2111,-211.21659 -1.84816,-5.11388 c -2.47899,-6.85941 -5.29713,-10.92748 -9.92159,-14.32215 -6.394579,-4.69404 -19.204739,-9.23152 -36.488554,-12.92459 -11.60573,-2.47981 -12.70176,-5.8529 -6.72959,-20.71061 3.83916,-9.55112 5.04357,-11.37557 8.91051,-13.49765 2.20923,-1.21237 11.273226,-1.35435 101.044634,-1.58272 54.23974,-0.13798 101.30741,-0.0111 104.59483,0.28198 10.8347,0.96592 11.98638,4.52329 6.47652,20.00509 -4.40826,12.38649 -5.79193,13.72606 -17.44198,16.88635 -17.56506,4.76484 -28.21391,12.19324 -33.82639,23.59657 -5.66479,11.50961 -5.30729,-3.78862 -5.033,215.37331 0.23208,185.44012 0.33764,198.32614 1.68975,206.28354 4.48625,26.40214 13.49939,38.20199 33.15781,43.40974 4.18727,1.10928 11.55882,1.36617 47.39641,1.65176 45.64267,0.36376 52.36003,-0.008 64.5814,-3.54684 23.94633,-6.93937 40.79755,-21.40627 57.24032,-49.14129 8.24777,-13.91196 9.70378,-15.81529 12.09849,-15.81529 3.34926,0 20.70751,5.77399 22.69603,7.54951 l 1.81877,1.62404 0,42.09497 c 0,40.4061 -0.0663,42.19933 -1.58993,44.69759 -2.22256,3.64514 -7.44773,7.2041 -13.69673,9.32907 l -5.32283,1.81012 -191.98119,0.18212 C 112.00959,985.63837 57.961166,985.44071 56.795836,984.80028 z M 350.10653,831.6992 c -1.53158,-1.53157 -1.93342,-2.57199 -1.56316,-4.04721 0.54297,-2.16336 9.87755,-21.39034 10.87557,-22.40101 0.33781,-0.34217 4.22646,-1.49915 8.64145,-2.57118 21.50603,-5.22188 40.53602,-18.01915 51.66336,-34.74247 4.42237,-6.6464 8.15801,-14.00744 7.46189,-14.70356 -0.20173,-0.20173 -5.41562,0.0571 -11.58641,0.57507 -12.53313,1.05211 -43.86575,0.54123 -53.65758,-0.87491 -11.97078,-1.73126 -23.14647,-4.25143 -29.2689,-6.60025 -14.18467,-5.44185 -30.1715,-18.4827 -44.43808,-36.24923 -4.35169,-5.41927 -11.16892,-15.51823 -11.16892,-16.54551 0,-0.61282 3.15336,-0.88875 9.90219,-0.86649 6.28045,0.0207 11.0184,-0.36232 12.954,-1.04724 9.86221,-3.48977 14.002,-13.94751 10.31996,-26.0698 -3.30716,-10.88812 -14.29221,-30.22525 -25.99016,-45.75084 -1.40198,-1.86073 -2.34468,-3.91573 -2.0949,-4.56667 0.3777,-0.98426 1.09918,-0.85698 4.28528,0.75603 8.47653,4.29136 14.29493,1.34715 17.50396,-8.85731 1.6169,-5.14163 1.81146,-7.4123 1.77608,-20.72847 -0.0436,-16.39309 -1.45321,-28.07163 -6.4002,-53.02301 -2.86536,-14.45221 -2.709,-17.505 0.66172,-12.91961 0.95508,1.29924 3.90787,5.30054 6.56176,8.89176 9.64911,13.05708 28.80448,30.37558 33.59732,30.37558 2.421,0 3.96251,-3.39397 5.23177,-11.51888 0.64705,-4.14198 2.52764,-3.93422 3.65848,0.40418 4.84024,18.56918 8.33367,25.18454 18.9007,35.79159 15.74457,15.80417 26.008,17.46591 32.17565,5.20952 4.87738,-9.69236 6.63414,-21.96793 6.64856,-46.45742 0.006,-10.22553 -0.27578,-22.13847 -0.62621,-26.4732 -0.48428,-5.99047 -0.40176,-7.88133 0.34395,-7.88133 0.5396,0 2.92285,1.83643 5.2961,4.08095 2.37325,2.24453 6.77345,5.24549 9.77821,6.66882 4.76469,2.25699 6.29003,2.58346 11.92994,2.55338 5.55876,-0.0297 7.20446,-0.39159 11.72095,-2.57774 11.94651,-5.78256 24.99063,-20.84469 34.96419,-40.37334 4.31137,-8.44195 5.82346,-8.82554 6.60383,-1.67532 0.78256,7.1708 4.30491,22.57074 6.69477,29.27021 5.20079,14.57918 13.18818,25.08465 22.11947,29.09279 3.94883,1.77212 6.1067,2.21087 10.72871,2.18135 5.78983,-0.0369 13.38008,-2.05326 17.23296,-4.57779 1.99499,-1.30714 4.3155,-1.59647 4.3155,-0.53806 0,0.36485 -1.46868,4.09333 -3.26376,8.28551 -5.82249,13.59766 -12.12465,31.40972 -15.10056,42.67906 -2.52388,9.55762 -2.9194,12.30473 -2.98318,20.71869 -0.0598,7.90904 0.19489,10.19178 1.38024,12.36296 4.49859,8.23952 16.35882,7.67247 33.86516,-1.61912 8.01495,-4.25399 16.10411,-11.97828 22.88165,-21.84948 4.48905,-6.53819 6.87091,-8.62435 6.87091,-6.018 0,0.58523 -0.39108,3.17969 -0.86913,5.76546 -1.0076,5.45046 -0.54046,8.15035 1.60925,9.30081 4.33465,2.31984 27.39195,-7.48441 44.45831,-18.90424 5.70811,-3.81952 9.51483,-5.88678 9.98133,-5.42035 0.46641,0.46643 -1.69509,4.87036 -5.66737,11.54712 -18.93314,31.82324 -29.32454,56.52302 -29.5364,70.20626 -0.16256,10.50188 3.45162,14.28873 12.91237,13.52931 3.78514,-0.30384 5.10371,-0.14625 5.10371,0.60995 0,0.56078 -4.63786,4.32205 -10.30636,8.35836 -17.73405,12.62765 -29.79047,24.09701 -35.40958,33.68527 -4.21857,7.19851 -3.36731,17.34165 1.9034,22.68019 2.82087,2.85711 10.43659,6.42859 17.34185,8.13263 2.99959,0.74023 5.4538,1.78556 5.4538,2.32298 0,1.13381 -6.67602,6.46969 -15.3585,12.27552 -19.55589,13.07663 -38.05972,19.65718 -55.27296,19.65694 -20.88222,-4.1e-4 -52.98487,-8.24876 -81.82027,-21.02272 -6.07818,-2.6926 -11.19925,-4.74763 -11.38015,-4.56673 -0.18091,0.18091 -1.07549,3.0116 -1.98797,6.29043 -2.12365,7.631 -7.59975,19.29199 -12.57038,26.76777 -5.68543,8.55081 -17.80788,20.3796 -27.38203,26.71869 -9.79755,6.48703 -18.93697,10.80818 -31.99117,15.12562 -12.05825,3.98803 -17.4881,4.29561 -20.61597,1.16773 z"
       id="path3050"
       inkscape:connector-curvature="0" />
  </g>
</svg>
