<?xml version="1.0" encoding="UTF-8" standalone="no"?>
<!-- Created with Inkscape (http://www.inkscape.org/) -->

<svg
   xmlns:dc="http://purl.org/dc/elements/1.1/"
   xmlns:cc="http://creativecommons.org/ns#"
   xmlns:rdf="http://www.w3.org/1999/02/22-rdf-syntax-ns#"
   xmlns:svg="http://www.w3.org/2000/svg"
   xmlns="http://www.w3.org/2000/svg"
   xmlns:sodipodi="http://sodipodi.sourceforge.net/DTD/sodipodi-0.dtd"
   xmlns:inkscape="http://www.inkscape.org/namespaces/inkscape"
   version="1.1"
   width="300"
   height="300"
   id="svg2"
   xml:space="preserve"
   inkscape:version="0.48.4 r9943 custom"
   sodipodi:docname="NDP-NPD_Canada.svg"><sodipodi:namedview
     pagecolor="#ffffff"
     bordercolor="#666666"
     borderopacity="1"
     objecttolerance="10"
     gridtolerance="10"
     guidetolerance="10"
     inkscape:pageopacity="0"
     inkscape:pageshadow="2"
     inkscape:window-width="640"
     inkscape:window-height="480"
     id="namedview3013"
     showgrid="false"
     inkscape:zoom="0.47033748"
     inkscape:cx="153.04972"
     inkscape:cy="159.37611"
     inkscape:window-x="262"
     inkscape:window-y="65"
     inkscape:window-maximized="0"
     inkscape:current-layer="svg2" /><metadata
     id="metadata8"><rdf:RDF><cc:Work
         rdf:about=""><dc:format>image/svg+xml</dc:format><dc:type
           rdf:resource="http://purl.org/dc/dcmitype/StillImage" /><dc:title /></cc:Work></rdf:RDF></metadata><defs
     id="defs6"><clipPath
       id="clipPath18"><path
         d="M 0,337.504 0,0 l 1341.63,0 0,337.504 -1341.63,0 z"
         id="path20"
         inkscape:connector-curvature="0" /></clipPath></defs><g
     id="g3015"
     transform="translate(5,99.374998)"><path
       style="fill:#f47216;fill-opacity:1;fill-rule:nonzero;stroke:none"
       id="path3097"
       d="m 249.4375,5.6250021 c 18.75,0 40.5625,9.1418999 40.5625,36.5624999 0,27.4242 -21.8125,36.5625 -40.5625,36.5625 l -13.8125,0 0,16.875 -35.625,0 0,-89.9999999 49.4375,0 z m -1.3125,26.2499999 -12.53125,0 0,20.625 12.53125,0 c 3.678,0 10,-2.7234 10,-10.3125 0,-7.5855 -6.322,-10.3125 -10,-10.3125 z"
       inkscape:connector-curvature="0" /><path
       style="fill:#f47216;fill-opacity:1;fill-rule:nonzero;stroke:none"
       id="path3095"
       d="m 146.25,5.6250021 c 22.5,0 45,11.2523999 45,44.9999999 0,33.74997 -22.5,45 -45,45 l -45,0 0,-89.9999999 45,0 z m -1.40625,31.2499999 -9.84375,0 0,27.5 9.84375,0 c 6.5649,0 13.125,-3.4351 13.125,-13.75 0,-10.3113 -6.5601,-13.75 -13.125,-13.75 z"
       inkscape:connector-curvature="0" /><path
       style="fill:#f47216;fill-opacity:1;fill-rule:nonzero;stroke:none"
       id="path3093"
       d="m 90,5.6250021 0,89.9999999 -33.75,0 -22.5,-30 0,30 -33.75,0 0,-89.9999999 33.75,0 22.5,29.9999999 0,-29.9999999 33.75,0 z"
       inkscape:connector-curvature="0" /></g></svg>